<?xml version="1.0" standalone="no"?><!DOCTYPE svg PUBLIC "-//W3C//DTD SVG 1.1//EN" "http://www.w3.org/Graphics/SVG/1.1/DTD/svg11.dtd"><svg t="1589870421722" class="icon" viewBox="0 0 1024 1024" version="1.1" xmlns="http://www.w3.org/2000/svg" p-id="886" xmlns:xlink="http://www.w3.org/1999/xlink" width="200" height="200"><defs><style type="text/css"></style></defs><path d="M98.1 321.8S442.6 97.4 510.6 97.4s412.5 224.4 412.5 224.4v336.6c0 154.9-125.9 280.5-281.3 280.5H379.4c-155.3 0-281.3-125.6-281.3-280.5V321.8z" fill="#FFFCC7" p-id="887"></path><path d="M752.8 430.5S442.6 97.4 510.6 97.4s412.5 224.4 412.5 224.4v336.6c0 154.9-125.9 280.5-281.3 280.5H379.4c-155.3 0-281.3-125.6-281.3-280.5l643.5-181.5 11.2-46.4z" fill="#FFF6A6" p-id="888"></path><path d="M848.2 344.1c0.7 3.1 1.1 6.2 1.1 9.3 0 46.5-75.6 84.2-168.8 84.2-93.2 0-168.8-37.7-168.8-84.2 0 46.5-75.6 84.2-168.8 84.2-93.2 0-168.8-37.7-168.8-84.2 0-3.1 0.4-6.3 1.1-9.3h-76v315.4c0 154.9 126 280.5 281.3 280.5H643c155.3 0 281.3-125.6 281.3-280.5V344.1h-76.1z" fill="#82A040" p-id="889" data-spm-anchor-id="a313x.7781069.0.i2" class="selected"></path><path d="M873.7 64.4h-99c-3.2 0-6.1 0.6-9 1.4-3.1-0.8-6.2-1.2-9.3-1.2-11.9 0-23.6 5.7-29.9 15.9l-145 233.3c-9.6 15.2-3.9 34.6 12.6 43.4 5.4 2.9 11.4 4.2 17.2 4.2 11.9 0 23.6-5.7 29.9-15.9l133.7-215h98.8c18.2 0 33-14.8 33-33 0-18.4-14.8-33.1-33-33.1z" fill="#3C3A50" p-id="890"></path><path d="M848.2 344.1c0.7 3.1 1.1 6.2 1.1 9.3 0 48.2-64.7 67.2-100.2 78.3 0 34.2 0.2 27.3 0.2 27.3v201.4c0 104.5-34.4 176-126.5 176-63.9 0-173.9 1.4-230.6 1.4-96.6 0-76.7 102.2-11.7 102.2H643c155.3 0 281.3-125.6 281.3-280.5V344.1h-76.1z" fill="#76912A" p-id="891"></path><path d="M641.9 872.9c118.7 0 215.3-96.2 215.3-214.5V357.7c-140.3-89.9-301.9-183.3-346.5-193.9-44.6 10.6-206.3 104-346.5 193.9v300.7c0 118.3 96.6 214.5 215.3 214.5h262.4m0 66H379.4c-155.3 0-281.3-125.6-281.3-280.5V321.8l-0.2 0.1 0.2-0.1S442.6 97.4 510.6 97.4s412.5 224.4 412.5 224.4v336.6c0.1 154.9-125.9 280.5-281.2 280.5z" fill="#3C3A50" p-id="892"></path><path d="M263.1 609c0 18.2-14.8 33-33 33s-33-14.8-33-33v-57.9c0-18.2 14.8-33 33-33s33 14.8 33 33V609m8.3-173c-14.2 11.4-35 9.2-46.4-5-11.4-14.2-9.2-35 5.1-46.4 0.9-0.7 68-54.6 139.4-101.7 15.2-10.1 35.7-5.9 45.8 9.3 10.1 15.2 5.8 35.7-9.3 45.8-68.3 45.1-133.7 97.5-134.3 98h-0.3" fill="#FFFFFF" p-id="893"></path></svg>