<?xml version="1.0" standalone="no"?><!DOCTYPE svg PUBLIC "-//W3C//DTD SVG 1.1//EN" "http://www.w3.org/Graphics/SVG/1.1/DTD/svg11.dtd"><svg t="1615345525056" class="icon" viewBox="0 0 1024 1024" version="1.1" xmlns="http://www.w3.org/2000/svg" p-id="11367" xmlns:xlink="http://www.w3.org/1999/xlink" width="200" height="200"><defs><style type="text/css"></style></defs><path d="M594.672 448C584.352 448 576 439.328 576 428.624V304h-64v448h340a16 16 0 0 0 16-16V448H594.672z" fill="#40C4FF" p-id="11368"></path><path d="M964 920h-896c-26.464 0-48-21.536-48-48s21.536-48 48-48h896c26.464 0 48 21.536 48 48s-21.536 48-48 48z m-896-80c-17.648 0-32 14.352-32 32s14.352 32 32 32h896c17.648 0 32-14.352 32-32s-14.352-32-32-32h-896z" fill="#263238" p-id="11369"></path><path d="M556 880h-80c-13.232 0-24-10.768-24-24V832a8 8 0 0 1 16 0v24a8 8 0 0 0 8 8h80a8 8 0 0 0 8-8V832a8 8 0 0 1 16 0v24c0 13.232-10.768 24-24 24zM196 88h-64a8 8 0 0 1 0-16h64a8 8 0 0 1 0 16z" fill="#263238" p-id="11370"></path><path d="M164 120a8 8 0 0 1-8-8V48a8 8 0 0 1 16 0v64a8 8 0 0 1-8 8zM84 192h-64a8 8 0 0 1 0-16h64a8 8 0 0 1 0 16z" fill="#263238" p-id="11371"></path><path d="M52 224a8 8 0 0 1-8-8v-64a8 8 0 0 1 16 0v64a8 8 0 0 1-8 8zM852 760h-672c-13.232 0-24-10.768-24-24V320c0-13.232 10.768-24 24-24H576a8 8 0 0 1 0 16H180a8 8 0 0 0-8 8v416a8 8 0 0 0 8 8h672a8 8 0 0 0 8-8V448a8 8 0 0 1 16 0v288c0 13.232-10.768 24-24 24zM356 984h-32a8 8 0 0 1 0-16h32a8 8 0 0 1 0 16zM708 984h-320a8 8 0 0 1 0-16h320a8 8 0 0 1 0 16z" fill="#263238" p-id="11372"></path><path d="M452 504h-240a8 8 0 0 1 0-16h240a8 8 0 0 1 0 16zM452 552h-200a8 8 0 0 1 0-16h200a8 8 0 0 1 0 16zM452 392h-240a8 8 0 0 1 0-16h240a8 8 0 0 1 0 16zM452 440h-200a8 8 0 0 1 0-16h200a8 8 0 0 1 0 16zM452 664h-200a8 8 0 0 1 0-16h200a8 8 0 0 1 0 16zM452 616h-240a8 8 0 0 1 0-16h240a8 8 0 0 1 0 16z" fill="#263238" p-id="11373"></path><path d="M992 176H608V128a16 16 0 0 1 16-16h352a16 16 0 0 1 16 16v48z" fill="#FF5252" p-id="11374"></path><path d="M992 184H608a8 8 0 0 1-8-8V128c0-13.232 10.768-24 24-24h352c13.232 0 24 10.768 24 24v48a8 8 0 0 1-8 8z m-376-16h368V128a8 8 0 0 0-8-8H624a8 8 0 0 0-8 8v40z" fill="#263238" p-id="11375"></path><path d="M976 424H624c-13.232 0-24-10.768-24-24V176a8 8 0 0 1 8-8h384a8 8 0 0 1 8 8v224c0 13.232-10.768 24-24 24z m-360-240V400a8 8 0 0 0 8 8h352a8 8 0 0 0 8-8V184h-368zM916 808a8 8 0 0 1-8-8V448a8 8 0 0 1 16 0v352a8 8 0 0 1-8 8zM116 808a8 8 0 0 1-8-8V296c0-26.464 21.536-48 48-48H576a8 8 0 0 1 0 16H156c-17.648 0-32 14.352-32 32V800a8 8 0 0 1-8 8z" fill="#263238" p-id="11376"></path><path d="M512 760a8 8 0 0 1-8-8V304a8 8 0 0 1 16 0v448a8 8 0 0 1-8 8zM760 340a8 8 0 0 1-4.784-1.6l-48-36a8 8 0 0 1 0-12.8l48-36a8 8 0 1 1 9.6 12.8l-39.456 29.6 39.456 29.6a8 8 0 0 1-4.816 14.4zM840 340a8 8 0 0 1-4.8-14.4l39.456-29.6-39.456-29.6a8 8 0 1 1 9.6-12.8l48 36a8 8 0 0 1 0 12.8l-48 36a8 8 0 0 1-4.8 1.6zM792 336a8 8 0 0 1-7.776-9.936l16-64a8 8 0 1 1 15.52 3.872l-16 64A7.952 7.952 0 0 1 792 336z" fill="#263238" p-id="11377"></path><path d="M560 512h128v160h-128z" fill="#FFD740" p-id="11378"></path><path d="M688 680h-128a8 8 0 0 1-8-8V512a8 8 0 0 1 8-8h128a8 8 0 0 1 8 8v160a8 8 0 0 1-8 8z m-120-16h112v-144h-112v144z" fill="#263238" p-id="11379"></path><path d="M688 512h128v80h-128z" fill="#FFD740" p-id="11380"></path><path d="M816 600h-128a8 8 0 0 1-8-8v-80a8 8 0 0 1 8-8h128a8 8 0 0 1 8 8v80a8 8 0 0 1-8 8z m-120-16h112v-64h-112v64z" fill="#263238" p-id="11381"></path><path d="M688 592h128v80h-128z" fill="#FFD740" p-id="11382"></path><path d="M816 680h-128a8 8 0 0 1-8-8v-80a8 8 0 0 1 8-8h128a8 8 0 0 1 8 8v80a8 8 0 0 1-8 8z m-120-16h112v-64h-112v64z" fill="#263238" p-id="11383"></path></svg>