<?xml version="1.0" standalone="no"?><!DOCTYPE svg PUBLIC "-//W3C//DTD SVG 1.1//EN" "http://www.w3.org/Graphics/SVG/1.1/DTD/svg11.dtd"><svg t="1590377258438" class="icon" viewBox="0 0 1024 1024" version="1.1" xmlns="http://www.w3.org/2000/svg" p-id="917" width="128" height="128" xmlns:xlink="http://www.w3.org/1999/xlink"><defs><style type="text/css"></style></defs><path d="M853.68848 544.742429c0 69.42858 0.095413 138.857161-0.031804 208.253937-0.127217 76.330093-51.013945 127.66208-127.28043 127.789297-142.546448 0.222629-285.092897 0.190825-427.671149 0.031804-76.83896-0.095413-128.234556-51.65003-128.361773-128.775227-0.190825-138.316489-0.190825-276.632978 0-414.949467 0.095413-76.997981 51.745442-128.616206 128.520794-128.679815 142.037581-0.127217 284.043358-0.095413 426.080939 0.031804 77.379632 0.063608 128.552598 51.04575 128.679815 128.011927 0.159021 69.42858 0.063608 138.857161 0.063608 208.28574z" fill="#091721" p-id="918"></path><path d="M507.149859 227.145635l8.555331-0.381651c6.996925 8.905178 4.229959 19.400565 4.00733 29.100848-0.318042 12.944312 5.088673 20.704538 16.665403 25.793211 24.393826 10.749821 50.091623 16.856229 75.916639 22.549181 26.333882 5.82017 52.954002 10.20915 79.478709 15.011585 12.467249 2.258099 21.245209-1.20856 29.736932-9.859303 17.778551-18.096593 33.108178-38.514893 52.127092-55.43473 5.374911-4.770631 9.98652-11.322297 18.82809-8.396311 1.176756 1.113147 2.321707 2.258099 3.498463 3.371246-5.152281 18.192005-21.722272 27.669659-32.408486 41.631705-9.286828 12.085598-20.990776 22.421965-32.376681 32.694723-8.968786 8.078268-9.922912 16.474578-5.406715 26.969966 13.166941 30.595646 34.539367 54.194366 61.191291 73.499519 7.378576 5.343107 12.244619 1.685623 18.032985-3.148617 9.700283-8.141877 16.856229-20.386496 31.517967-21.149796l-0.095412 10.81343c-4.897848 14.566326-18.637264 20.132062-29.323478 28.81461-8.459919 1.717427-16.983446 3.053204-25.697797 2.57614-31.104513-24.902693-60.237165-51.459204-72.704414-90.482964-4.866043-2.067273-6.519862 1.431189-8.523527 3.434854-25.761406 25.697798-51.745442 51.172966-75.725813 78.619996-5.979191 6.837904-6.360841 12.308227-1.335777 19.559586 8.428114 12.149206 18.859894 22.708203 27.065379 35.01643-0.699693 5.851974-4.961456 7.219555-9.827499 7.919248-12.689878-6.488058-20.227475-18.00118-27.542442-29.41889-6.074603-9.509457-11.258689-10.5908-19.464174-2.03547-18.955306 19.750412-38.41948 39.055564-58.074479 58.138088-8.046464 7.823835-7.982856 13.516787 1.303973 20.132062 8.905178 6.360841 18.319222 12.371836 24.616455 21.754076-0.858714 5.692953-5.152281 7.092338-9.891108 7.919247-6.774296-0.222629-10.463584-6.074603-16.061124-9.286828-1.494798 7.887443 5.724757 12.02199 6.774296 18.414635-2.862378 6.042799-7.601205 7.760226-13.866634 6.138212-11.862969-10.940647-10.877038-27.637854-18.160201-41.472684-0.190825-1.303972-2.41712 1.81284-0.572476 0.763301 5.947386-3.371246-2.862378 25.888623-12.085598 40.168712-6.265428 2.480728-10.877038 0.445259-14.152871-5.247694 0.508867-6.329037 6.20182-10.845234 6.042799-17.746747-6.20182 1.781036-9.255024 8.046464-14.947977 10.368171-6.488058-0.159021-9.795695-3.721092-10.5908-9.954716 5.247694-10.558996 16.061124-14.947977 24.616455-21.785881 8.61894-6.869708 9.350436-12.658074 1.144951-20.609125a2657.193652 2657.193652 0 0 1-58.360717-58.360717c-7.378576-7.601205-12.467249-7.601205-18.764481 1.20856-8.269093 11.576731-16.156536 23.59872-27.033574 33.076374-6.837904-0.222629-11.894773-2.830574-13.484983-10.081934 10.781626-11.608535 20.990776-23.694133 30.213995-36.60664 4.834239-6.774296 4.38898-11.894773-1.431189-18.064789-24.330217-25.793211-47.992546-52.158897-73.65854-76.648135-4.579806-4.357176-9.096003-11.036059-13.294158 0.445259-11.322297 30.881883-32.758332 53.971736-57.820045 74.167407-4.102742 3.307637-6.742492 8.237289-11.767556 10.495388-8.682548 0.763301-17.142467-0.954126-25.665994-2.162686-13.6122-5.724757-23.439699-15.456844-29.991366-28.591981v-11.894772c10.972451-1.335777 14.725347 8.61894 21.149797 13.99385 19.845824 16.633599 23.026245 17.01525 42.395006 0.254434 20.259279-17.524117 36.00236-38.324067 46.943007-62.972327 4.738827-10.686213 3.911917-18.478243-4.738827-26.779141-19.464174-18.60546-38.324067-37.847004-57.183961-57.088549-4.579806-4.675218-11.290493-8.746156-8.237289-17.269683 1.367581-1.20856 2.735162-2.41712 4.102742-3.657484 10.622605-3.275833 15.615865 4.961456 20.609125 11.163276 15.615865 19.464174 34.284933 35.938752 51.491009 53.84452 6.106407 6.329037 12.62627 10.622605 22.326552 9.127807 49.678169-7.696618 99.165512-16.156536 147.030841-32.026835 26.429295-8.777961 27.383421-10.749821 27.860484-38.260459 0.190825-7.505792-2.576141-16.061124 5.025065-22.072118z" fill="#A34A4E" p-id="919"></path><path d="M792.465385 245.56027c-18.987111 9.382241-32.185856 25.952232-44.303258 41.727117-22.644594 29.482498-46.81579 43.698978-85.585117 32.090443-36.161381-10.81343-74.358232-14.725347-110.424201-26.810945-35.652514-11.926577-35.938752-12.435444-36.00236-49.964407 0-5.279498-0.286238-10.558996-0.445259-15.838494 67.23409-0.031804 134.46818 0.445259 201.670466-0.286238 27.097183-0.318042 52.190701 4.357176 75.089729 19.082524zM507.149859 227.145635c-0.159021 8.459919-0.413455 16.888033-0.413455 25.347951-0.063608 27.160791-0.349846 27.987701-26.206665 37.338137-39.278194 14.184676-80.84629 19.146132-120.951393 29.64152-33.267199 8.714352-56.070814 0.636084-77.697674-25.475169-14.470913-17.460509-28.401155-36.733857-49.042085-48.565021 18.22381-12.721682 38.41948-18.82809 60.65062-18.764481 71.24142 0.254434 142.451036 0.349846 213.660652 0.477063z" fill="#1D2E3A" p-id="920"></path><path d="M824.205982 789.730223c2.353511 3.689288 3.752896 7.633009 3.116812 12.117403-6.551666 5.406715-10.018325-1.017735-14.470913-3.752897-24.330217-23.566916-50.982141-44.6213-75.407771-68.060999-11.41771-10.940647-22.453769-12.880703-37.0519-5.82017-29.069044 14.057459-58.710563 27.00177-88.511103 39.405411-8.555331 3.562071-11.067863 8.141877-7.601205 17.110662 4.929652 12.848899 9.00059 26.01584 13.166941 39.150977 1.908252 6.010995 4.579806 11.990185 2.162686 18.541852-1.749231 3.371246-4.643414 4.579806-8.269094 4.325372-1.717427-0.286238-3.180421-1.049539-4.452588-2.226295-7.569401-18.032984-12.721682-36.956487-18.955307-55.466534-3.307637-9.795695-8.841569-16.156536-18.891698-19.495978-37.369941-12.40364-74.549057-13.548591-112.046215-0.286238-11.004255 3.880113-17.61953 10.527192-21.213405 21.467839-5.788365 17.524117-8.491723 36.097773-17.873964 52.41333-1.113147 1.303972-2.448924 2.321707-3.975525 3.085008-3.307637 1.176756-6.519862 1.081343-9.477653-0.98593-1.303972-19.114327 7.855639-35.716123 13.039724-53.24024 5.59754-18.859894 6.042799-18.82809-11.926577-27.065379-28.846414-13.262354-58.074479-25.665994-86.920893-38.864738-10.845234-4.961456-19.464174-3.40305-27.510638 4.293567-25.602385 24.521042-53.812715 46.147902-78.588192 71.559462-4.420785 3.0214-8.078268 8.905178-14.661738 4.102743-1.431189-4.897848-2.448924-9.700283 3.053203-13.00792 15.043389-23.089853 38.387676-37.624375 57.947263-56.070814 8.39631-7.919247 16.824425-15.743082 26.206665-24.775476-22.708203-11.513122-44.716713-20.291083-66.152747-30.2458-10.877038-5.056869-23.344287-7.760226-30.563842-18.828089l0.381651-8.39631c5.533932-3.434854 10.145542 0.222629 14.82076 2.162686 26.333882 10.81343 52.540547 22.040314 77.952107 34.761996 14.311892 7.155946 24.171196 4.802435 35.39808-5.152281 14.502718-12.817095 27.288008-27.987701 45.639035-36.002361 9.00059-0.98593 18.22381-3.530267 26.174861 3.339442 0.826909 2.41712-0.127217 4.452589-2.385315 4.897848-25.729602 5.120477-39.977886 26.683728-59.155822 41.091033-6.933317 5.21589-5.438519 8.777961 2.003665 12.149206 30.436625 13.675808 61.095878 26.874554 91.405286 40.772992 6.678883 3.085008 9.859304 0.286238 11.735752-5.82017 7.18775-23.280678 14.184676-46.624965 22.040314-69.714818 2.162686-6.360841-0.095413-11.290493-5.21589-15.329627-4.548001-3.593875-10.050129-6.010995-13.421374-11.036059 1.367581-9.00059 8.873373-9.350436 15.488648-10.972451 13.294158 10.463584 13.294158 10.463584 19.050719-10.686213 4.897848-5.343107 8.491723-13.198745 18.128397-9.636674 2.576141 11.036059-4.866043 19.909433-6.742492 30.754666 19.495978-5.915582 38.960152-4.452589 59.092214-0.954126 0.477063-10.654409-6.837904-19.559586-3.943722-29.641519 9.763891-4.00733 13.166941 4.229959 18.22381 9.38224 0.508867 1.431189 0.826909 2.894183 1.176756 4.38898 3.911917 16.824425 3.911917 16.824425 18.351026 8.587136 6.360841 0.095413 12.753486 0.127217 15.20241 7.79203-1.81284 3.530267-5.470323 4.834239-8.491723 6.869709-10.558996 7.060534-14.121067 15.488648-9.191415 28.337547 7.569401 19.686803 13.962046 39.850669 20.100258 60.078144 2.735162 9.00059 6.8061 10.272758 14.979781 6.424449 28.655589-13.453179 57.565612-26.365686 86.793676-38.546697 10.5908-4.420785 10.368171-9.00059 2.003665-14.979781-19.050719-13.6122-32.917353-34.793801-57.947262-39.755256-1.526602-0.318042-1.971861-2.226294-1.685623-3.911918 7.79203-7.601205 17.110662-4.738827 26.143057-3.848308 18.160201 8.269093 31.327142 23.153462 45.60723 36.193185 11.036059 10.081933 20.863559 12.053794 34.0305 5.343107 23.058049-11.703948 47.165637-21.117992 70.700748-31.83601 7.378576-3.371246 14.661739-8.905178 23.757742-5.406715l0.095412 7.728422c-3.339442 9.255024-12.244619 11.290493-19.782215 14.566326-21.881293 9.414045-43.253719 19.973041-65.389447 28.782806-10.781626 4.293568-11.926577 7.887443-2.480728 15.743082 19.909433 16.569991 38.292263 34.921017 58.2335 51.522812 6.8061 5.756561 13.198745 12.117402 16.951642 20.577321z" fill="#A34A4E" p-id="921"></path><path d="M836.514209 399.460819c-12.371836 7.314967-22.390161 17.492313-32.535702 27.415225-5.374911 5.247694-9.700283 6.8061-16.251949 2.258099-30.182191-21.02258-53.558282-47.42007-67.329502-82.05485-3.7847-9.541262-2.862378-15.774886 4.897847-23.407895 24.457434-24.012175 48.596826-48.406001 70.605336-74.771687 27.574246 21.149797 38.896543 50.600491 40.741187 83.899494 1.303972 22.167531 0.031804 44.462279-0.127217 66.661614zM228.767649 249.090536c17.714942 24.584651 40.995621 43.953412 61.795571 65.64388 19.845824 20.704538 20.036649 20.354691 6.996925 46.65677-13.739417 27.701463-34.062304 49.328323-59.569276 66.598006-6.8061 4.61161-11.163276 5.279498-17.492313-1.017735-10.050129-10.018325-21.308818-18.764481-32.058639-28.051309 0.826909-28.369351-2.003665-56.706898 1.876448-85.139858 3.752896-27.351617 17.778551-47.801721 38.451284-64.689754zM836.482405 650.809454c-34.348542 14.852564-68.792496 29.514303-102.982017 44.780321-7.18775 3.212225-12.562661 3.307637-18.478243-1.97186-16.474578-14.757151-33.139982-29.291673-49.741777-43.889804 1.240364-4.039134 4.516197-5.661149 8.110072-6.647079 32.853744-9.127807 62.304438-24.711868 88.383887-46.688573 3.593875-3.0214 7.505792-5.851974 12.530857-6.106408 20.577321 6.170016 42.045159 9.00059 62.050004 17.206076 0.063608 14.439109 0.095413 28.878218 0.127217 43.317327zM359.641954 650.014349c-14.661739 12.817095-29.80054 25.125322-43.794391 38.610305-10.177346 9.795695-19.177936 10.368171-31.963226 4.22996-31.263534-14.979781-63.417585-28.178526-95.189987-42.076964-0.063608-14.311892-0.095413-28.623785-0.159021-42.967481 19.845824-8.873373 41.568096-11.163276 62.081809-17.61953 5.724757 0.190825 9.636674 3.848309 13.675809 7.219554 24.584651 20.577321 51.936267 35.875144 83.008976 44.303259 4.897848 1.367581 10.686213 1.908252 12.340031 8.300897zM824.205982 789.730223c-28.43296-25.093518-56.770507-50.250644-85.330683-75.153337-6.297233-5.470323-6.392645-8.237289 1.781035-11.703948 24.234804-10.272758 48.215175-21.054384 72.195547-31.931422 8.110072-3.689288 15.838494-8.205485 23.725937-12.340031 0.127217 30.40482 0.031804 60.809641 0.508867 91.214461 0.222629 14.916172-9.763891 26.238469-12.880703 39.914277zM188.280896 659.205765c34.316738 15.870298 68.601671 31.740597 104.381402 48.278783-31.390751 27.924092-61.604746 54.798646-91.818741 81.641395-23.185266-41.472684-8.587135-86.602851-12.562661-129.920178z" fill="#1D2E3A" p-id="922"></path><path d="M814.88735 795.900239c4.357176 1.558406 6.551666 7.569401 12.40364 5.947387-23.21707 43.508153-59.728298 62.749697-108.67497 61.127682-30.595646-1.017735-61.286704-0.286238-91.914153-0.349846-5.82017-6.996925-11.672143-13.99385-5.247694-23.725937 6.360841-3.593875 13.357766-2.766966 20.19567-2.79877 25.952232-0.127217 51.904463 0.413455 77.824891-0.190826 29.609715-0.667888 55.848185-10.718017 78.111128-30.659253 4.961456-4.452589 9.064199-10.81343 17.301488-9.350437zM197.822157 802.133863c5.661149 0.477063 7.951051-5.120477 12.340032-6.901512 8.555331 2.162686 14.248284 8.777961 20.863559 13.834829 23.884958 18.287418 50.695903 27.2244 80.750877 27.033575 24.203-0.159021 48.437805-0.222629 72.640805 0.063608 7.760226 0.095413 16.347362-0.826909 19.782216 9.064199 1.653819 6.996925-0.60428 12.721682-5.788365 17.460508-34.316738 0.031804-68.665279 0.318042-102.982017 0.063609-44.780321-0.318042-77.157002-20.990776-97.607107-60.618816z" fill="#15222B" p-id="923"></path><path d="M608.796099 840.203497c0.763301 0.063608 1.526602 0.190825 2.258099 0.413455 5.59754 6.360841 8.873373 13.38957 6.678883 22.103923-70.128273-0.031804-140.224741-0.031804-210.353015-0.063609-3.975526-9.191415 0.763301-15.838494 6.519863-22.199335l0.890517 0.349846c5.59754-4.834239 12.435444-5.343107 19.368761-5.343106 51.681834-0.127217 103.331863-0.095413 155.013697 0 6.901513 0 13.771221 0.38165 19.623195 4.738826z" fill="#15222B" p-id="924"></path><path d="M836.959468 462.0833l-0.572475 137.584992c-21.308818 2.607945-41.154642-0.477063-57.979067-15.106997-1.049539-5.247694 1.908252-9.096003 4.738827-12.817095 20.927167-27.351617 32.662919-58.456129 37.719787-92.264 0.636084-4.198155 2.067273-8.141877 4.134547-11.862969 3.053204-3.880113 5.311302-9.477653 11.958381-5.533931z" fill="#1E2E39" p-id="925"></path><path d="M188.439917 599.223033c-0.063608-45.702643-0.159021-91.43709-0.22263-137.139733 8.873373-3.752896 9.22322 4.198155 12.053794 8.746156 6.996925 25.697798 11.322297 52.286114 25.093518 75.821226 4.770631 8.141877 9.477653 16.283753 14.979781 23.980371 3.530267 4.961456 8.39631 9.827499 4.897848 16.951641-17.746747 9.636674-36.129577 16.251949-56.802311 11.640339z" fill="#1E2E3A" p-id="926"></path><path d="M836.959468 462.0833c-4.866043-0.540671-6.106407 4.00733-8.936981 6.329037-1.399385-0.858714-2.830574-2.353511-2.448924-3.721092 4.261764-15.361431-3.848309-23.376091-16.729012-28.687394 9.191415-8.555331 18.382831-17.142467 27.574246-25.697798 0.190825 17.237879 0.38165 34.507563 0.540671 51.777247z" fill="#262E39" p-id="927"></path><path d="M779.807311 582.971084c16.919837 12.117402 37.624375 11.513122 56.579682 16.729012 0 2.607945 0 5.184085-0.031805 7.792031-22.135727-0.763301-43.126502-6.329037-63.22676-15.42504-0.572476-5.120477-0.318042-9.573066 6.678883-9.096003z" fill="#9E494D" p-id="928"></path><path d="M188.439917 599.223033c19.464174-2.321707 38.196851-7.919247 57.02494-13.103332 5.120477-1.049539 6.996925 1.303972 6.456254 6.170015-20.291083 8.61894-41.345467 14.184676-63.417586 15.584061 0-2.894183-0.031804-5.788365-0.063608-8.650744z" fill="#A0494D" p-id="929"></path><path d="M197.154269 471.592757c-3.466658-2.703357-2.003665-10.050129-8.905177-9.541262 0.063608-17.078858 0.127217-34.189521 0.222629-51.268379 9.286828 8.332702 18.541852 16.697208 27.82868 25.02991-1.526602 3.339442-4.802435 3.911917-7.855639 4.61161-9.286828 2.130882-11.640339 8.141877-9.636674 16.697208 1.144951 5.056869 3.880113 10.240954-1.653819 14.470913z" fill="#202E3A" p-id="930"></path><path d="M617.733081 862.720875c-3.180421-7.092338-6.360841-14.152871-6.678883-22.103923 2.766966-0.127217 5.311302-0.731497 6.678883-3.530267 2.671553-0.318042 3.943721 0.667888 3.307637 3.498463 1.908252 7.346771 3.7847 14.693543 5.692953 22.040314l-9.00059 0.095413z" fill="#9C4447" p-id="931"></path><path d="M413.899929 840.489735c-2.162686 7.41038-4.357176 14.788955-6.519863 22.199335h-9.00059c0.954126-5.311302 1.908252-10.622605 2.862379-15.902102 2.385315-1.399385 0.699693-5.120477 3.530267-6.297233 3.053204-0.031804 6.074603-0.031804 9.127807 0z" fill="#984346" p-id="932"></path><path d="M197.154269 471.592757c0.38165-4.134547-0.159021-7.951051-1.81284-11.990185-6.170016-15.20241-0.031804-21.976706 20.927167-23.757742 9.859304 1.176756 19.718607 2.353511 29.577911 3.498463 4.579806-3.7847 9.795695-3.180421 15.106998-2.289903 36.988291 6.265428 71.146007 19.81402 102.695779 39.977886 4.039134 2.576141 8.046464 5.184085 9.064199 10.399975 4.38898 2.989595 8.809765 5.979191 13.198745 8.968786 12.340032 0.572476 19.400565 10.240954 27.383421 17.301488 17.969376 15.870298 36.733857 31.072709 51.459204 50.346057 3.275833 3.053204 6.583471 6.106407 9.859304 9.159611 5.692953-1.240364 8.01466 2.003665 9.127807 6.837904 3.244029 3.880113 7.919247 4.897848 12.40364 6.392646 9.255024 10.081933 6.996925 16.729012-9.445849 27.924092-5.21589 4.229959-10.431779 8.428114-15.647669 12.658074-4.866043 5.661149-8.555331 13.262354-18.255614 10.718017-5.629344 2.735162-11.226884 5.470323-16.856229 8.173681-14.59813 10.145542-30.086778 14.121067-47.165637 6.678883-9.286828-5.59754-19.400565-1.81284-29.100848-2.607945-40.23232-11.163276-77.093394-28.655589-107.689039-57.756437-2.162686-2.067273-4.325372-4.102742-6.456254-6.170016-18.351026-26.906358-35.779731-54.257974-42.490418-86.857285-1.940057-9.191415-3.943721-18.382831-5.883778-27.60605zM779.807311 582.971084c-2.226294 3.0214-4.420785 6.074603-6.647079 9.096003-30.977296 28.528372-67.329503 47.070224-107.879864 57.661024-9.636674 1.20856-19.686803-2.480728-28.941827 2.671554-17.047054 8.01466-32.408485 3.434854-47.070224-6.360842-5.247694-2.067273-10.527192-4.102742-15.774886-6.170015-9.191415-0.063608-15.870298-3.975526-19.336957-12.753487l-16.061124-12.435444c-8.523527-2.448924-11.862969-10.113737-15.80669-16.665404-3.880113-6.456254-1.622014-11.099668 6.488058-11.767556 4.675218-1.176756 9.350436-2.353511 12.530857-6.424449 0.890518-5.851974 5.406715-7.823835 10.145542-9.573066 2.989595-2.099078 5.947386-4.198155 8.936981-6.297233 22.867224-27.510638 48.215175-52.222505 79.605926-70.064664 3.244029-1.908252 6.519862-3.7847 9.763892-5.692953 0.413455-4.897848 4.198155-7.092338 7.760226-9.286828 33.012765-20.450104 68.22002-35.429885 106.734913-41.82253 5.279498-0.890518 10.495388-1.526602 15.075193 2.226295 9.859304-1.113147 19.686803-2.19449 29.546107-3.307638 21.531447-0.731497 23.694133 6.392645 19.146132 32.44029-5.82017 30.468429-12.530857 60.682424-29.228065 87.461565-5.82017 9.318632-12.62627 18.064789-18.987111 27.065378z" fill="#EA5B5A" p-id="933"></path><path d="M516.182253 288.209709c59.855514 26.842749 121.68289 34.475759 182.524335 46.052489l3.7847 5.311303c-20.545517 18.923502-41.154642 37.783396-61.604746 56.834115-6.583471 6.138212-14.248284 11.831164-18.700873 19.336956-11.19508 18.987111-26.779141 19.432369-44.812125 13.294158-7.982856-2.735162-16.061124-5.343107-23.884958-8.523527-25.856819-10.431779-41.599901-26.238469-37.878809-57.661024 2.830574-23.916762 0.572476-48.437805 0.572476-74.64447zM506.736404 344.534957c0 11.640339-0.795105 23.344287 0.222629 34.857409 1.20856 13.866634-4.484393 22.61279-15.711277 30.118582-18.891698 12.62627-39.818865 18.955306-61.700158 23.312483-7.028729 1.399385-12.02199-1.144951-16.824425-6.138212-26.302078-27.478833-52.890394-54.671429-79.192471-82.150262-2.607945-2.735162-8.300898-4.707022-5.915583-9.763891 1.717427-3.689288 6.519862-2.480728 10.081934-3.085008 54.003541-9.032394 108.197907-17.3969 159.148243-38.673914 8.714352-3.657484 10.050129-0.413455 9.954716 7.092338-0.190825 14.82076-0.095413 29.641519-0.063608 44.430475zM372.713483 487.463056c-38.673914-25.538777-80.369227-43.190111-126.866976-48.119763-0.572476-2.830574 0.095413-5.247694 2.480728-6.965121 31.61338-22.962636 54.798646-52.445135 66.311769-86.189397 31.040904 29.482498 62.463459 59.314843 93.822405 89.210796 2.162686 2.067273 5.565736 4.516197 2.989596 7.919248-11.831164 15.647669-19.305153 35.175451-38.737522 44.144237zM779.330248 439.311489c-47.674504 4.420785-89.719663 23.725937-129.570332 48.883063-16.061124-11.036059-25.02991-27.987701-35.970557-43.285523-2.385315-3.371246-0.667888-5.979191 1.749232-8.269094 31.804205-30.086778 63.640215-60.141752 94.84014-89.62425 10.972451 34.189521 35.684318 63.004131 67.170482 86.634655 1.303972 0.922322 1.240364 3.721092 1.781035 5.661149zM464.754853 564.047582c-27.701463-20.895363-49.61456-48.533217-78.842625-67.615741 7.664813-16.347362 21.595055-28.242134 31.072708-43.317327 3.816505-6.074603 7.124142-1.494798 9.986521 1.335776 23.916762 23.948567 47.674504 48.02435 71.654875 71.909309 5.152281 5.120477 4.261764 8.809765-1.113148 12.78529-11.004255 8.237289-21.849489 16.601795-32.758331 24.902693zM639.996024 493.887505c-26.524707 23.344287-53.049415 46.720378-79.605926 70.064664-45.352797-25.665994-45.352797-25.665994-9.763891-61.572941 14.089263-14.21648 28.973631-27.796875 42.108768-42.872069 9.732087-11.19508 15.266019-8.587135 21.595056 2.448924 6.869708 11.958381 16.379166 21.849489 25.665993 31.931422z" fill="#1D2E3A" p-id="934"></path><path d="M593.180234 442.04665c-26.206665 25.63419-51.65003 50.536882-76.966177 75.312359 0-31.486163-0.031804-65.453055 0.031804-99.388142 0-4.516197 1.81284-8.01466 6.583471-4.325372 20.863559 16.124732 45.320993 23.59872 70.350902 28.401155z" fill="#1F2E3A" p-id="935"></path><path d="M505.845886 515.164518c-24.552847-24.043979-48.978476-47.992546-74.580861-73.086063 26.715533-4.261764 51.331987-13.739417 74.580861-31.517968v104.604031zM528.744914 586.246917c-3.689288 3.593875-7.314967 6.901513-2.480728 12.530857 4.293568 4.99326 7.919247 10.5908 11.831164 15.902103l9.763892 36.543032c-24.012175-5.311302-47.133832-8.110072-71.8457 1.59021 3.848309-13.898438 7.251359-26.143057 10.654408-38.41948 3.593875-4.961456 6.933317-10.145542 10.845234-14.852564 4.261764-5.088673 2.925987-9.127807-1.399385-13.103332 4.866043-14.280088 9.763891-28.528372 15.202411-44.430475 9.318632 14.470913 10.113737 30.691058 17.428704 44.239649z" fill="#1E2E3A" p-id="936"></path><path d="M483.741964 580.045097c-3.053204-2.289903-6.074603-4.579806-9.127807-6.837904 2.862378-10.272758 13.38957-11.831164 19.941236-18.319222-2.003665 9.445849 0.413455 20.354691-10.813429 25.157126z" fill="#31313C" p-id="937"></path><path d="M551.453117 570.249402l-10.145542 9.573066c-12.944312-3.498463-7.664813-15.80669-15.266018-24.616455 13.198745 2.289903 17.492313 11.41771 25.41156 15.043389z" fill="#2F313C" p-id="938"></path><path d="M404.803926 840.457931l-3.530267 6.297233c-1.622014-8.841569-8.682548-6.074603-13.898438-6.106408-29.005435-0.222629-58.074479 1.272168-86.952697-0.445259-35.938752-2.130882-66.725223-16.79262-90.260335-44.971146 27.319812-24.902693 54.671429-49.773581 81.895829-74.771687 7.378576-6.774296 14.375501-8.269093 24.171196-3.689288 33.012765 15.393235 66.311768 30.150387 99.928813 44.207846 10.463584 4.38898 11.608535 9.382241 8.01466 19.305152-7.155946 19.782216-12.976116 40.073299-19.368761 60.173557zM621.040718 840.553343l-3.307637-3.498462c-4.070938-20.163866-11.544927-39.309998-18.319223-58.615151-3.085008-8.714352-1.240364-13.103333 7.378576-16.79262 34.921017-14.852564 69.587601-30.213995 104.285989-45.575426 5.59754-2.480728 10.527192-4.548001 15.965712 0.318042 29.514303 26.270274 60.237165 51.141162 87.875019 79.478709-21.62686 21.563251-46.179706 37.942417-76.966177 43.190111-17.810355 3.053204-35.747927 1.017735-53.62189 1.335776-21.117992 0.445259-42.204181 0.159021-63.290369 0.159021zM608.796099 840.203497c-64.657949 0.190825-129.347703 0.413455-194.005653 0.60428 4.325372-14.121067 10.368171-27.987701 12.562661-42.42681 4.166351-27.796875 22.580986-38.006025 46.911203-43.03109 33.966891-7.028729 67.011461-4.293568 99.67438 7.41038 8.841569 3.180421 14.248284 7.696618 16.601795 16.951642 5.152281 20.450104 14.439109 39.62804 18.255614 60.491598zM589.268317 646.038823c15.488648 3.625679 30.977296 7.155946 47.070224 6.360842 11.608535-0.795105 20.958971 2.957791 29.705128 11.226884 14.470913 13.707613 30.182191 26.143057 47.165636 40.61397-38.705718 17.269684-75.439575 33.648849-112.173432 50.05982-5.279498 2.353511-8.269093 1.685623-10.240954-4.61161-8.205485-26.143057-17.174271-52.03168-25.347952-78.142933-3.053204-9.60487 8.555331-21.499643 23.82135-25.506973zM388.742802 652.654098c16.092928 0.286238 31.645184-3.085008 47.165637-6.678883 23.312483 9.318632 26.492903 15.711277 19.146131 38.324068-6.837904 21.054384-13.866634 42.045159-20.259279 63.258564-2.289903 7.569401-4.484393 10.240954-12.880703 6.360841-35.875144-16.569991-72.068329-32.408485-110.615026-49.61456 20.004845-16.983446 38.705718-32.885548 57.470199-48.692239 6.010995-5.056869 13.421375-1.303972 19.973041-2.957791z" fill="#1D2E3A" p-id="939"></path><path d="M442.714539 753.537038c8.873373-27.415225 16.951641-52.445135 25.061713-77.506849 0.318042-1.017735 0.190825-2.258099 0.763301-3.053204 11.862969-16.124732 30.182191-17.206075 46.847595-16.029319 15.075193 1.049539 34.41215-0.540671 41.377271 19.146132 7.569401 21.340622 13.898438 43.126502 20.79995 64.721557 2.003665 6.233624 3.943721 12.689878-6.710687 9.318633-42.235985-13.325962-84.122123-11.608535-128.139143 3.40305z" fill="#1D2E3A" p-id="940"></path><path d="M452.764668 637.76973c6.074603-3.562071 12.181011-7.155946 18.255613-10.718017 3.148616 7.569401-2.862378 13.453179-3.911917 20.259279-0.349846 2.289903-2.512532 5.406715-5.374911 3.371245-4.38898-3.085008-10.240954-5.661149-8.968785-12.912507z" fill="#2E303C" p-id="941"></path><path d="M554.156474 627.115321l19.336957 12.753487c-3.657484 4.929652-9.032394 13.930242-13.135137 10.813429-6.233624-4.738827-8.682548-14.439109-6.20182-23.566916z" fill="#33313C" p-id="942"></path><path d="M384.703668 624.062118c-84.058515-2.067273-146.044911-65.866509-147.09445-146.521975-0.159021-13.357766 8.205485-8.364506 13.644004-7.951051 49.169301 3.975526 90.991832 25.379756 129.029661 55.371122 24.043979 18.955306 43.889803 42.903873 70.350903 58.901388 7.219555 4.38898 2.353511 7.79203-0.477063 11.004255-18.414635 20.863559-42.42681 28.560176-65.453055 29.196261zM640.727521 624.602789c-26.651924 0.286238-49.61456-8.39631-67.83837-28.401155-3.721092-4.070938-7.283163-7.919247 0.095413-12.340032 26.174861-15.615865 45.734447-39.150977 69.301363-57.947262 37.942417-30.245799 79.605926-52.063484 128.616207-57.152157 19.336957-2.003665 19.623195-1.303972 17.301487 18.160201-9.954716 82.913563-68.538063 137.553188-147.4761 137.680405z" fill="#FFFFFF" p-id="943"></path></svg>